<?xml version="1.0" encoding="UTF-8" standalone="no"?><!DOCTYPE svg PUBLIC "-//W3C//DTD SVG 1.1//EN" "http://www.w3.org/Graphics/SVG/1.1/DTD/svg11.dtd"><svg width="100%" height="100%" viewBox="0 0 454 838" version="1.1" xmlns="http://www.w3.org/2000/svg" xmlns:xlink="http://www.w3.org/1999/xlink" xml:space="preserve" xmlns:serif="http://www.serif.com/" style="fill-rule:evenodd;clip-rule:evenodd;stroke-linecap:round;stroke-linejoin:round;stroke-miterlimit:1.5;"><rect id="Artboard2" x="0" y="0" width="453.543" height="837.638" style="fill:none;"/><g id="InitialiseX"><rect x="85.039" y="28.346" width="283.465" height="77.953" style="fill:#2d91b4;fill-opacity:0.5;"/><text x="87.874px" y="38.344px" style="font-family:'ArialMT', 'Arial', sans-serif;font-size:10px;">InitialiseX</text><rect x="161.731" y="56.693" width="130.081" height="21.26" style="fill:#ebebeb;"/><g transform="matrix(0.24,0,0,0.24,-0.307885,0.474366)"><text x="881.352px" y="299.428px" style="font-family:'ArialMT', 'Arial', sans-serif;font-size:58.333px;">Fill</text><text x="972.07px" y="299.428px" style="font-family:'ArialMT', 'Arial', sans-serif;font-size:58.333px;">X</text><rect x="972.07" y="305.608" width="38.908" height="4.272"/></g><rect x="161.731" y="56.693" width="130.081" height="21.26" style="fill:none;stroke:#000;stroke-width:1px;"/></g><g id="FormAndSolveSystem"><rect x="85.039" y="134.678" width="283.465" height="610.866" style="fill:#2db47d;fill-opacity:0.5;"/><text x="87.874px" y="144.644px" style="font-family:'ArialMT', 'Arial', sans-serif;font-size:10px;">FormAndSolveSystem</text><text x="24.453px" y="443.802px" style="font-family:'ArialMT', 'Arial', sans-serif;font-size:10px;">Iteration</text><g id="Events"><path d="M226.772,162.992l14.173,0" style="fill:none;stroke:#fa6464;stroke-width:1px;"/><text x="248.031px" y="165.857px" style="font-family:'ArialMT', 'Arial', sans-serif;font-size:8px;fill:#fa6464;">Update W<tspan x="283.457px 287.906px " y="165.857px 165.857px ">ei</tspan>ghts</text><path d="M226.772,177.165l14.173,0" style="fill:none;stroke:#fa6464;stroke-width:1px;"/><text x="248.031px" y="180.061px" style="font-family:'ArialMT', 'Arial', sans-serif;font-size:8px;fill:#fa6464;">Update Linearised Constraint</text></g><g id="FormConstraintMembers"><rect x="113.386" y="205.512" width="226.772" height="206.929" style="fill:#2db47d;fill-opacity:0.5;"/><text x="116.22px" y="214.793px" style="font-family:'ArialMT', 'Arial', sans-serif;font-size:8px;">FormConstraintMembers</text><rect x="161.731" y="233.858" width="130.081" height="51.024" style="fill:#ebebeb;"/><g transform="matrix(0.24,0,0,0.24,-0.307885,177.395)"><text x="738.235px" y="300.97px" style="font-family:'ArialMT', 'Arial', sans-serif;font-size:58.333px;">Fill</text><text x="828.953px" y="300.97px" style="font-family:'ArialMT', 'Arial', sans-serif;font-size:58.333px;">H</text><text x="887.286px" y="300.97px" style="font-family:'ArialMT', 'Arial', sans-serif;font-size:58.333px;">(with</text><text x="1026.65px" y="300.97px" style="font-family:'ArialMT', 'Arial', sans-serif;font-size:58.333px;">H</text><text x="1068.78px" y="320.395px" style="font-family:'ArialMT', 'Arial', sans-serif;font-size:34.008px;">i</text><text x="1076.34px" y="300.97px" style="font-family:'ArialMT', 'Arial', sans-serif;font-size:58.333px;">·</text><text x="1095.76px" y="300.97px" style="font-family:'ArialMT', 'Arial', sans-serif;font-size:58.333px;">X</text><text x="1134.67px" y="300.97px" style="font-family:'ArialMT', 'Arial', sans-serif;font-size:58.333px;">)</text><path d="M828.953,302.879l42.127,-0l-0,4.272l-42.127,0l0,-4.272Zm0,8.545l42.127,-0l-0,4.272l-42.127,-0l0,-4.272Z"/><path d="M1026.65,302.879l42.127,-0l-0,4.272l-42.127,0l0,-4.272Zm0,8.545l42.127,-0l-0,4.272l-42.127,-0l0,-4.272Z"/><rect x="1095.76" y="307.151" width="38.908" height="4.272"/><text x="926.711px" y="361.212px" style="font-family:'ArialMT', 'Arial', sans-serif;font-size:58.333px;">&amp;</text><text x="715.694px" y="421.454px" style="font-family:'ArialMT', 'Arial', sans-serif;font-size:58.333px;">Fill</text><text x="806.413px" y="421.454px" style="font-family:'ArialMT', 'Arial', sans-serif;font-size:58.333px;">r</text><text x="842.045px" y="421.454px" style="font-family:'ArialMT', 'Arial', sans-serif;font-size:58.333px;">(with</text><text x="981.413px" y="421.454px" style="font-family:'ArialMT', 'Arial', sans-serif;font-size:58.333px;">X</text><text x="1020.32px" y="402.029px" style="font-family:'ArialMT', 'Arial', sans-serif;font-size:34.008px;">t</text><text x="1029.77px" y="421.454px" style="font-family:'ArialMT', 'Arial', sans-serif;font-size:58.333px;">·</text><text x="1049.19px" y="421.454px" style="font-family:'ArialMT', 'Arial', sans-serif;font-size:58.333px;">H</text><text x="1091.32px" y="440.879px" style="font-family:'ArialMT', 'Arial', sans-serif;font-size:34.008px;">i</text><text x="1098.88px" y="421.454px" style="font-family:'ArialMT', 'Arial', sans-serif;font-size:58.333px;">·</text><text x="1118.3px" y="421.454px" style="font-family:'ArialMT', 'Arial', sans-serif;font-size:58.333px;">X</text><text x="1157.21px" y="421.454px" style="font-family:'ArialMT', 'Arial', sans-serif;font-size:58.333px;">)</text><rect x="806.413" y="427.634" width="19.425" height="4.272"/><rect x="981.413" y="427.634" width="38.908" height="4.272"/><path d="M1049.19,423.362l42.126,-0l0,4.272l-42.126,0l-0,-4.272Zm-0,8.545l42.126,-0l0,4.272l-42.126,0l-0,-4.272Z"/><rect x="1118.3" y="427.634" width="38.908" height="4.272"/></g><rect x="161.731" y="233.858" width="130.081" height="51.024" style="fill:none;stroke:#000;stroke-width:1px;"/><path d="M226.772,284.882l-0,28.346" style="fill:none;stroke:#000;stroke-width:1px;"/><rect x="161.731" y="313.228" width="130.081" height="21.26" style="fill:#ebebeb;"/><g transform="matrix(0.24,0,0,0.24,-0.307885,257.063)"><text x="743.077px" y="299.428px" style="font-family:'ArialMT', 'Arial', sans-serif;font-size:58.333px;">Fill</text><text x="833.795px" y="299.428px" style="font-family:'ArialMT', 'Arial', sans-serif;font-size:58.333px;">H</text><text x="892.129px" y="299.428px" style="font-family:'ArialMT', 'Arial', sans-serif;font-size:58.333px;">(with</text><text x="1031.5px" y="299.428px" style="font-family:'ArialMT', 'Arial', sans-serif;font-size:58.333px;">b</text><text x="1063.94px" y="318.853px" style="font-family:'ArialMT', 'Arial', sans-serif;font-size:34.008px;">i</text><text x="1071.49px" y="299.428px" style="font-family:'ArialMT', 'Arial', sans-serif;font-size:58.333px;">·</text><text x="1090.92px" y="299.428px" style="font-family:'ArialMT', 'Arial', sans-serif;font-size:58.333px;">X</text><text x="1129.83px" y="299.428px" style="font-family:'ArialMT', 'Arial', sans-serif;font-size:58.333px;">)</text><path d="M833.795,301.336l42.127,-0l-0,4.272l-42.127,0l0,-4.272Zm0,8.545l42.127,-0l-0,4.272l-42.127,0l0,-4.272Z"/><rect x="1031.5" y="305.608" width="32.442" height="4.272"/><rect x="1090.92" y="305.608" width="38.908" height="4.272"/></g><rect x="161.731" y="313.228" width="130.081" height="21.26" style="fill:none;stroke:#000;stroke-width:1px;"/><path d="M226.772,334.488l-0,28.347" style="fill:none;stroke:#000;stroke-width:1px;"/><rect x="161.731" y="362.835" width="130.081" height="21.26" style="fill:#ebebeb;"/><g transform="matrix(0.24,0,0,0.24,-0.307885,306.67)"><text x="785.232px" y="299.428px" style="font-family:'ArialMT', 'Arial', sans-serif;font-size:58.333px;">Fill</text><text x="875.95px" y="299.428px" style="font-family:'ArialMT', 'Arial', sans-serif;font-size:58.333px;">r</text><text x="911.583px" y="299.428px" style="font-family:'ArialMT', 'Arial', sans-serif;font-size:58.333px;">(with c</text><text x="1080.12px" y="318.853px" style="font-family:'ArialMT', 'Arial', sans-serif;font-size:34.008px;">i</text><text x="1087.67px" y="299.428px" style="font-family:'ArialMT', 'Arial', sans-serif;font-size:58.333px;">)</text><rect x="875.95" y="305.608" width="19.425" height="4.272"/></g><rect x="161.731" y="362.835" width="130.081" height="21.26" style="fill:none;stroke:#000;stroke-width:1px;"/></g><g id="FormEnergyMembers"><rect x="113.386" y="426.614" width="226.772" height="127.475" style="fill:#2db47d;fill-opacity:0.5;"/><text x="116.22px" y="435.896px" style="font-family:'ArialMT', 'Arial', sans-serif;font-size:8px;">FormEnergyMembers</text><rect x="161.731" y="454.961" width="130.081" height="21.26" style="fill:#ebebeb;"/><g transform="matrix(0.24,0,0,0.24,-0.307885,398.796)"><text x="746.324px" y="299.428px" style="font-family:'ArialMT', 'Arial', sans-serif;font-size:58.333px;">Fill</text><text x="837.042px" y="299.428px" style="font-family:'ArialMT', 'Arial', sans-serif;font-size:58.333px;">K</text><text x="892.157px" y="299.428px" style="font-family:'ArialMT', 'Arial', sans-serif;font-size:58.333px;">(with</text><text x="1031.53px" y="299.428px" style="font-family:'ArialMT', 'Arial', sans-serif;font-size:58.333px;">k</text><text x="1060.69px" y="318.853px" style="font-family:'ArialMT', 'Arial', sans-serif;font-size:34.008px;">i</text><text x="1068.25px" y="299.428px" style="font-family:'ArialMT', 'Arial', sans-serif;font-size:58.333px;">·</text><text x="1087.67px" y="299.428px" style="font-family:'ArialMT', 'Arial', sans-serif;font-size:58.333px;">X</text><text x="1126.58px" y="299.428px" style="font-family:'ArialMT', 'Arial', sans-serif;font-size:58.333px;">)</text><path d="M837.042,301.336l38.908,-0l0,4.272l-38.908,0l0,-4.272Zm0,8.545l38.908,-0l0,4.272l-38.908,0l0,-4.272Z"/><rect x="1031.53" y="305.608" width="29.167" height="4.272"/><rect x="1087.67" y="305.608" width="38.908" height="4.272"/></g><rect x="161.731" y="454.961" width="130.081" height="21.26" style="fill:none;stroke:#000;stroke-width:1px;"/><path d="M226.772,476.22l-0,28.347" style="fill:none;stroke:#000;stroke-width:1px;"/><rect x="161.731" y="504.567" width="130.081" height="21.26" style="fill:#ebebeb;"/><g transform="matrix(0.24,0,0,0.24,-0.307885,448.402)"><text x="780.361px" y="299.428px" style="font-family:'ArialMT', 'Arial', sans-serif;font-size:58.333px;">Fill</text><text x="871.08px" y="299.428px" style="font-family:'ArialMT', 'Arial', sans-serif;font-size:58.333px;">s</text><text x="916.453px" y="299.428px" style="font-family:'ArialMT', 'Arial', sans-serif;font-size:58.333px;">(with s</text><text x="1084.99px" y="318.853px" style="font-family:'ArialMT', 'Arial', sans-serif;font-size:34.008px;">i</text><text x="1092.54px" y="299.428px" style="font-family:'ArialMT', 'Arial', sans-serif;font-size:58.333px;">)</text><rect x="871.08" y="305.608" width="29.167" height="4.272"/></g><rect x="161.731" y="504.567" width="130.081" height="21.26" style="fill:none;stroke:#000;stroke-width:1px;"/></g><g id="Solve"><rect x="113.386" y="568.346" width="226.772" height="162.992" style="fill:#2db47d;fill-opacity:0.5;"/><text x="116.22px" y="577.628px" style="font-family:'ArialMT', 'Arial', sans-serif;font-size:8px;">FormEnergyMembers</text><rect x="161.731" y="596.693" width="130.081" height="21.26" style="fill:#ebebeb;"/><g transform="matrix(0.24,0,0,0.24,-0.307885,540.528)"><text x="729.501px" y="299.428px" style="font-family:'ArialMT', 'Arial', sans-serif;font-size:58.333px;">H</text><text x="771.628px" y="280.003px" style="font-family:'ArialMT', 'Arial', sans-serif;font-size:34.008px;">t</text><text x="781.076px" y="299.428px" style="font-family:'ArialMT', 'Arial', sans-serif;font-size:58.333px;">·</text><text x="800.502px" y="299.428px" style="font-family:'ArialMT', 'Arial', sans-serif;font-size:58.333px;">H</text><text x="858.835px" y="299.428px" style="font-family:'ArialMT', 'Arial', sans-serif;font-size:58.333px;">+</text><text x="909.108px" y="299.428px" style="font-family:'ArialMT', 'Arial', sans-serif;font-size:58.333px;">K</text><text x="948.016px" y="280.003px" style="font-family:'ArialMT', 'Arial', sans-serif;font-size:34.008px;">t</text><text x="957.464px" y="299.428px" style="font-family:'ArialMT', 'Arial', sans-serif;font-size:58.333px;">·</text><text x="976.89px" y="299.428px" style="font-family:'ArialMT', 'Arial', sans-serif;font-size:58.333px;">K</text><text x="1032px" y="299.428px" style="font-family:'ArialMT', 'Arial', sans-serif;font-size:58.333px;">+ ε</text><text x="1108.28px" y="280.003px" style="font-family:'ArialMT', 'Arial', sans-serif;font-size:34.008px;">2</text><text x="1127.2px" y="299.428px" style="font-family:'ArialMT', 'Arial', sans-serif;font-size:58.333px;">·</text><text x="1146.62px" y="299.428px" style="font-family:'ArialMT', 'Arial', sans-serif;font-size:58.333px;">I</text><path d="M729.501,301.336l42.127,-0l-0,4.272l-42.127,0l0,-4.272Zm0,8.545l42.127,-0l-0,4.272l-42.127,0l0,-4.272Z"/><path d="M800.502,301.336l42.126,-0l0,4.272l-42.126,0l-0,-4.272Zm-0,8.545l42.126,-0l0,4.272l-42.126,0l-0,-4.272Z"/><path d="M909.108,301.336l38.908,-0l-0,4.272l-38.908,0l-0,-4.272Zm-0,8.545l38.908,-0l-0,4.272l-38.908,0l-0,-4.272Z"/><path d="M976.89,301.336l38.908,-0l-0,4.272l-38.908,0l-0,-4.272Zm-0,8.545l38.908,-0l-0,4.272l-38.908,0l-0,-4.272Z"/><path d="M1146.62,301.336l16.207,-0l0,4.272l-16.207,0l0,-4.272Zm0,8.545l16.207,-0l0,4.272l-16.207,0l0,-4.272Z"/></g><rect x="161.731" y="596.693" width="130.081" height="21.26" style="fill:none;stroke:#000;stroke-width:1px;"/><path d="M226.772,617.953l-0,28.346" style="fill:none;stroke:#000;stroke-width:1px;"/><rect x="161.731" y="646.299" width="130.081" height="21.26" style="fill:#ebebeb;"/><g transform="matrix(0.24,0,0,0.24,-0.307885,590.134)"><text x="743.829px" y="299.428px" style="font-family:'ArialMT', 'Arial', sans-serif;font-size:58.333px;">H</text><text x="785.955px" y="280.003px" style="font-family:'ArialMT', 'Arial', sans-serif;font-size:34.008px;">t</text><text x="795.404px" y="299.428px" style="font-family:'ArialMT', 'Arial', sans-serif;font-size:58.333px;">·</text><text x="814.829px" y="299.428px" style="font-family:'ArialMT', 'Arial', sans-serif;font-size:58.333px;">r</text><text x="850.462px" y="299.428px" style="font-family:'ArialMT', 'Arial', sans-serif;font-size:58.333px;">+</text><text x="900.734px" y="299.428px" style="font-family:'ArialMT', 'Arial', sans-serif;font-size:58.333px;">K</text><text x="939.642px" y="280.003px" style="font-family:'ArialMT', 'Arial', sans-serif;font-size:34.008px;">t</text><text x="949.091px" y="299.428px" style="font-family:'ArialMT', 'Arial', sans-serif;font-size:58.333px;">·</text><text x="968.516px" y="299.428px" style="font-family:'ArialMT', 'Arial', sans-serif;font-size:58.333px;">s</text><text x="1013.89px" y="299.428px" style="font-family:'ArialMT', 'Arial', sans-serif;font-size:58.333px;">+ ε·</text><text x="1109.59px" y="299.428px" style="font-family:'ArialMT', 'Arial', sans-serif;font-size:58.333px;">X</text><path d="M743.829,301.336l42.126,-0l0,4.272l-42.126,0l-0,-4.272Zm-0,8.545l42.126,-0l0,4.272l-42.126,0l-0,-4.272Z"/><rect x="814.829" y="305.608" width="19.425" height="4.272"/><path d="M900.734,301.336l38.908,-0l0,4.272l-38.908,0l0,-4.272Zm0,8.545l38.908,-0l0,4.272l-38.908,0l0,-4.272Z"/><rect x="968.516" y="305.608" width="29.167" height="4.272"/><rect x="1109.59" y="305.608" width="38.908" height="4.272"/></g><rect x="161.731" y="646.299" width="130.081" height="21.26" style="fill:none;stroke:#000;stroke-width:1px;"/><path d="M226.772,667.559l-0,28.347" style="fill:none;stroke:#000;stroke-width:1px;"/><rect x="161.731" y="695.906" width="130.081" height="21.26" style="fill:#ebebeb;"/><text x="180.472px" y="711.603px" style="font-family:'ArialMT', 'Arial', sans-serif;font-size:14px;">CholeskySolve</text><rect x="161.731" y="695.906" width="130.081" height="21.26" style="fill:none;stroke:#000;stroke-width:1px;"/></g></g><rect x="161.731" y="759.685" width="130.081" height="21.26" style="fill:#ebebeb;"/><text x="186.689px" y="775.383px" style="font-family:'ArialMT', 'Arial', sans-serif;font-size:14px;">Converged ?</text><rect x="161.731" y="759.685" width="130.081" height="21.26" style="fill:none;stroke:#000;stroke-width:1px;"/><path d="M226.772,77.953l-0,155.905" style="fill:none;stroke:#000;stroke-width:1px;"/><path d="M226.772,384.094l-0,70.867" style="fill:none;stroke:#000;stroke-width:1px;"/><path d="M226.772,525.827l-0,70.866" style="fill:none;stroke:#000;stroke-width:1px;"/><path d="M226.772,717.165l-0,42.52" style="fill:none;stroke:#000;stroke-width:1px;"/><path d="M220.772,117.472l6,3l-6,3l-0,-6Z"/><path d="M161.731,770.315l-90.865,-0l0,-649.843l151.106,0" style="fill:none;stroke:#000;stroke-width:1px;"/><path d="M229.772,803.291l-3,6l-3,-6l6,0Z"/><path d="M226.772,780.945l-0,23.546" style="fill:none;stroke:#000;stroke-width:1px;"/></svg>